<svg width="244" height="250" viewBox="0 0 244 250" fill="none" xmlns="http://www.w3.org/2000/svg">
<path d="M169.629 77.1777C155.235 91.5919 140.845 106.01 126.445 120.418C123.051 123.814 121.52 123.826 118.027 120.489C115.774 118.337 113.549 116.157 111.345 113.955C94.3896 97.0167 77.4354 80.0766 60.5068 63.1111C59.2477 61.8493 58.2111 61.0282 56.1771 61.7916C35.7038 69.4756 17.2027 80.5457 0 94.1128C1.27987 95.7711 3.06666 96.5272 4.66228 97.4982C35.9043 116.51 62.0027 141.061 83.1361 170.859C85.4307 174.094 87.844 174.782 91.2856 174.263C98.3894 173.192 105.551 172.699 112.721 172.412C126.983 171.842 141.195 172.555 155.356 174.321C157.227 174.555 158.73 174.354 159.995 172.528C179.04 145.033 202.416 121.952 230.28 103.401C234.802 100.39 239.786 97.9859 244 94.2251C243.43 93.5929 243.162 93.1938 242.803 92.9129C226.175 79.9175 208.092 69.4747 188.424 61.7834C186.529 61.0421 185.321 61.5211 183.998 62.8658C179.376 67.564 174.672 72.1808 169.629 77.1777ZM90.8645 30.7411C82.6443 39.0397 74.4241 47.3383 66.4936 55.3444C85.2862 74.2646 103.728 92.8318 121.786 111.013C140.311 92.5214 158.892 73.9746 177.508 55.3924C159.071 37.1668 140.377 18.6872 121.474 0C111.636 9.87976 101.43 20.1303 90.8645 30.7411ZM98.2457 194.614C108.05 212.249 116.046 230.676 122.224 250C129.498 226.361 139.816 204.329 152.9 182.923C132.073 180.454 112.04 180.371 91.5621 183.037C93.9127 187.116 95.9422 190.639 98.2457 194.614Z" fill="url(#paint0_linear_5_39)"/>
<defs>
<linearGradient id="paint0_linear_5_39" x1="122" y1="0" x2="122" y2="250" gradientUnits="userSpaceOnUse">
<stop stop-color="#FFF000"/>
<stop offset="1" stop-color="#00E1FF"/>
</linearGradient>
</defs>
</svg>
